# xmcd CD database file
#
# Track frame offsets:
#	150
#	20796
#	40354
#	61120
#	80038
#	99766
#	120397
#	137443
#	151692
#	166928
#
# Disc length: 2481 seconds
#
# Revision: 0
# Processed by: cddbd v1.5.2PL0 Copyright (c) Steve Scherf et al.
# Submitted via: CDex 1.51
#
DISCID=6f09af0a
DTITLE=Makin Whoopee - Full of the Moon
DYEAR=1997
DGENRE=Jazz
TTITLE0=You Lips Tasted of the Sea
TTITLE1=Mandarin Sky
TTITLE2=My Kind of Angel
TTITLE3=Black and White Woman
TTITLE4=Full of the Moon
TTITLE5=Coral Dreamin
TTITLE6=Is That Jazz
TTITLE7=Papa mau Mau
TTITLE8=Money in Your Pocket
TTITLE9=Sympathy Deep
EXTD=YEAR: 1997
EXTT0=
EXTT1=
EXTT2=
EXTT3=
EXTT4=
EXTT5=
EXTT6=
EXTT7=
EXTT8=
EXTT9=
PLAYORDER=
